# xmcd
# 
# Track frame offsets:
#     150
#     14078
#     27113
#     43285
#     60039
#     75194
#     89794
#     106327
#     125544
#     140079
#     154707
#     174935
#     191317
#     209072
#     226157
#     245199
#     263129
#     280098
# 
# Disc length: 3920
# 
# Revision: 0
# Processed by: cddbd v1.5.2PL0 Copyright (c) Steve Scherf et al.
# Submitted via: BonkEnc v1.0
# 
DISCID=f60f4e12
DTITLE=Various Artist - Classic Country '80s Love Songs
DYEAR=0
DGENRE=Country
TTITLE0=Clint Black - A Better Man
TTITLE1=Terri Gibbs - Somebody's Knockin'
TTITLE2=Dan Seals - Bop
TTITLE3=Keith Whitley - When You Say Nothing At All
TTITLE4=Kathy Mattea - Eighteen Wheels and a Dozen Roses
TTITLE5=Rosanne Cash - Seven Year Ache
TTITLE6=Randy Travis - I Told You So
TTITLE7=Ronnie Milsap - Lost in the Fifties Tonight (In the Still of the Night)
TTITLE8=The Judds - Mama He's Crazy
TTITLE9=Anne Murray - Could I Have This Dance
TTITLE10=Willie Nelson - Angel Flying Too Close to the Ground
TTITLE11=Mickey Gilley - Stand By Me
TTITLE12=Conway Twitty - Somebody's Needin' Somebody
TTITLE13=Dolly Parton and Kenny Rogers - Real Love
TTITLE14=Alabama - There's No Way
TTITLE15=Eddie Rabbit with Crystal Gayle - You and I
TTITLE16=Kenny Rogers - Lady
TTITLE17=Dolly Parton - I Will Always Love You
EXTD=
EXTT0=
EXTT1=
EXTT2=
EXTT3=
EXTT4=
EXTT5=
EXTT6=
EXTT7=
EXTT8=
EXTT9=
EXTT10=
EXTT11=
EXTT12=
EXTT13=
EXTT14=
EXTT15=
EXTT16=
EXTT17=
PLAYORDER=
